<?xml version="1.0" standalone="no"?><!DOCTYPE svg PUBLIC "-//W3C//DTD SVG 1.1//EN" "http://www.w3.org/Graphics/SVG/1.1/DTD/svg11.dtd"><svg t="1735134694452" class="icon" viewBox="0 0 1024 1024" version="1.1" xmlns="http://www.w3.org/2000/svg" p-id="1830" xmlns:xlink="http://www.w3.org/1999/xlink" width="1024" height="1024"><path d="M512 512m-386.71874973 0a386.71874973 386.71874973 0 1 0 773.43749946 0 386.71874973 386.71874973 0 1 0-773.43749946 0Z" fill="#61DAFB" p-id="1831"></path><path d="M506.48046848 310.765625c49.11328098-39.7792966 97.73437473-55.07226535 132.96093804-34.7167966 36.01757813 20.7949216 46.75781277 72.31640598 35.71874973 136.6875C736.4375 435.3417966 775.671875 470.41015598 775.671875 512s-39.234375 76.6582034-100.51171875 99.2636716c11.0566409 64.37109402 0.2988284 115.8925784-35.71874973 136.6875-36.01757813 20.7949216-86.00976563 4.35937527-136.23046929-37.40624972-50.22070285 41.765625-100.21289035 58.20117215-136.23046848 37.40624972-36.01757813-20.7949216-46.75781277-72.31640598-35.71874973-136.6875C269.98437527 588.6582034 230.75000027 553.58984402 230.75000027 512s39.234375-76.6582034 100.51171875-99.2636716c-11.0566409-64.37109402-0.2988284-115.8925784 35.71874973-136.6875 36.01757813-20.7949216 86.00976563-4.35937527 136.23046848 37.40624972z m143.08593804 308.86523438l-3.56835965 1.00195312c-22.1484375 6.1171875-46.35351563 10.82812473-72.07031277 13.88671848a480.41015625 480.41015625 0 0 1-50.69531223 58.02539117c41.58984402 34.45312473 80.50781277 48.67382813 104.36132813 34.89257758 23.85351535-13.78124973 31.02539035-54.56250027 21.97265652-107.80664035z m-292.71093777-1e-8l-0.07031223 0.49218723c-8.92968723 52.99804688-1.75781223 93.58593777 22.04296875 107.31445313 23.85351535 13.78124973 62.75390625-0.421875 104.34374946-34.89257758a481.42968723 481.42968723 0 0 1-50.67773438-58.02539117 481.78125 481.78125 0 0 1-75.6386716-14.90624946zM537.13671902 637.68359348h-0.35156277a621.86132785 621.86132785 0 0 1-67.5 0 449.33203152 449.33203152 0 0 0 33.92578098 36.87890679 449.45507813 449.45507813 0 0 0 33.92578179-36.87890679zM503.21093723 412.33203125l-7.76953098 0.05273438a573.39843723 573.39843723 0 0 0-48.19921875 2.6542966 573.34570285 573.34570285 0 0 0-30.33984348 47.1269534A575.96484375 575.96484375 0 0 0 391.23828125 512c7.4707034 16.453125 16.03125 33.15234402 25.66406277 49.83398438a575.9824216 575.9824216 0 0 0 30.32226563 47.10937472 575.96484375 575.96484375 0 0 0 111.97265598 0 576.0703125 576.0703125 0 0 0 30.32226562-47.10937472l3.84960938-6.76757786c8.08593723-14.41406223 15.34570312-28.82812527 21.79687472-43.06640652a575.96484375 575.96484375 0 0 0-25.6464841-49.83398438l-3.93750027-6.69726562a573.38085938 573.38085938 0 0 0-26.38476535-40.42968777 575.78906277 575.78906277 0 0 0-55.9863284-2.70703098z m125.8066409 133.11914035l-3.00585938 5.85351563a624.72656277 624.72656277 0 0 1-30.93750027 52.91015679c17.36718723-2.90039063 33.75-6.59179688 48.91992215-10.93359429a448.80468777 448.80468777 0 0 0-14.9765625-47.81249946z m-251.61328098 0l-1.79296875 4.90429688c-5.34374973 14.765625-9.73828152 29.14453152-13.18359375 42.92578125 15.16992215 4.3417966 31.5527341 8.03320285 48.90234348 10.93359429a626.83593777 626.83593777 0 0 1-33.92578098-58.76367242z m-40.57031305-106.38281223l-1.19531195 0.45703153c-49.93945313 18.73828098-81.2109375 45.140625-81.2109375 72.4746091 0 27.56250027 31.7636716 54.14062527 82.40624945 72.93164063A480.58593723 480.58593723 0 0 1 361.75976562 512a481.11328098 481.11328098 0 0 1-24.92578152-72.93164063z m332.75390625 0l-0.421875 1.66992215A482.9589841 482.9589841 0 0 1 644.66210965 512a481.11328098 481.11328098 0 0 1 24.9257807 72.91406277c50.625-18.75585965 82.3886716-45.3515625 82.38867242-72.91406277 0-27.56250027-31.74609375-54.14062527-82.38867242-72.93164063zM503.21093723 456.80468723c26.82421902 0 48.56835938 24.71484402 48.56835937 55.21289062s-21.74414035 55.21289063-48.56835937 55.21289063c-26.82421902 0-48.56835938-24.71484402-48.56835938-55.21289063s21.74414035-55.21289063 48.56835938-55.21289062z m91.88085992-37.00195258l3.55078098 5.5195307a624.72656277 624.72656277 0 0 1 30.375 53.26171875c6.15234402-16.48828152 11.14453098-32.51953152 14.9765625-47.83007812a444.55078125 444.55078125 0 0 0-48.90234348-10.95117133z m-183.76171902 0l-2.98828153 0.50976508c-16.25976535 2.81249973-31.640625 6.328125-45.91406195 10.42382839 3.83203152 15.29296875 8.82421848 31.3417966 14.9765625 47.81250028a619.98046902 619.98046902 0 0 1 33.92578097-58.7285159z m216.26367187-123.22265652c-23.85351535-13.78124973-62.75390625 0.421875-104.34375027 34.89257839a481.46484375 481.46484375 0 0 1 50.69531304 58.04296821c27.07031223 3.21679688 52.5234375 8.26171902 75.58593723 14.87109375 9.08789035-53.22656223 1.93359402-94.04296848-21.9375-107.80664035z m-144.42187527 34.89257839c-41.57226535-34.45312473-80.4902341-48.67382813-104.34374946-34.89257839-23.87109402 13.78124973-31.02539035 54.58007813-21.97265652 107.82421902a480.05859348 480.05859348 0 0 1 75.62109375-14.88867242 483.85546848 483.85546848 0 0 1 49.4824216-56.8652341z m20.0390625 17.98242188l-3.09374946 3.02343723a452.95312473 452.95312473 0 0 0-30.83203152 33.85546875 625.95703125 625.95703125 0 0 1 67.85156277 0 449.296875 449.296875 0 0 0-33.92578179-36.87890598z" fill="#FFFFFF" p-id="1832"></path></svg>