<?xml version="1.0" standalone="no"?><!DOCTYPE svg PUBLIC "-//W3C//DTD SVG 1.1//EN" "http://www.w3.org/Graphics/SVG/1.1/DTD/svg11.dtd"><svg t="1734057668079" class="icon" viewBox="0 0 1024 1024" version="1.1" xmlns="http://www.w3.org/2000/svg" p-id="1371" xmlns:xlink="http://www.w3.org/1999/xlink" width="1024" height="1024"><path d="M116.4921875 484.31445312h106.78710937v51.41601563H116.4921875V484.31445312z m62.73742676-226.42822265l36.33728027-36.33728028 75.54199219 75.5419922-36.38671875 36.33728027-75.49255372-75.49255372zM800.72070313 484.31445312H907.5078125v51.41601563h-106.78710937V484.31445312zM484.31445312 116.4921875h51.41601563v106.78710937H484.31445312V116.4921875zM432.8984375 856.09179687h158.203125V907.5078125H432.8984375v-51.41601563zM539.68554688 274.6953125c-118.65234375-15.8203125-229.39453125 63.28125001-257.08007813 181.93359375-27.68554688 118.65234375 39.55078125 237.3046875 150.29296875 276.85546875v15.8203125c0 27.68554688 23.73046875 51.41601563 51.41601563 51.41601563h51.41601562c27.68554688 0 51.41601563-23.73046875 51.41601563-51.41601563v-15.8203125c94.921875-31.640625 158.203125-122.60742188 158.20312499-221.484375 3.95507813-118.65234375-87.01171875-221.484375-205.66406249-237.3046875zM630.65234375 512c0-39.55078125-19.77539063-75.14648438-51.41601563-98.87695313-23.73046875-19.77539063 0-47.4609375 23.73046875-31.64062499 39.55078125 27.68554688 67.23632813 75.14648438 67.23632813 130.51757812 0 31.640625-39.55078125 31.640625-39.55078125 0z m102.28820802-220.49560547l75.4925537-75.54199219 36.33728028 36.38671875-75.5419922 75.44311524-36.2878418-36.33728028z" fill="#111111" p-id="1372"></path></svg>