<?xml version="1.0" standalone="no"?><!DOCTYPE svg PUBLIC "-//W3C//DTD SVG 1.1//EN" "http://www.w3.org/Graphics/SVG/1.1/DTD/svg11.dtd"><svg t="1752631768430" class="icon" viewBox="0 0 1024 1024" version="1.1" xmlns="http://www.w3.org/2000/svg" p-id="4449" xmlns:xlink="http://www.w3.org/1999/xlink" width="200" height="200"><path d="M679.6 876.3h-51.5v-50H422v50h-51.5c-14.2 0-25.8 11.2-25.8 25s11.5 25 25.8 25h309c14.2 0 25.8-11.2 25.8-25s-11.5-25-25.7-25z m128.7-750.2H216c-56.9 0-103 44.8-103 100v350.1h798.3V226.1c0-55.3-46.1-100-103-100zM113 676.2c0 55.2 46.1 100 103 100h592.3c56.9 0 103-44.8 103-100v-50H113v50z" fill="#020000" p-id="4450"></path></svg>