<?xml version="1.0" standalone="no"?><!DOCTYPE svg PUBLIC "-//W3C//DTD SVG 1.1//EN" "http://www.w3.org/Graphics/SVG/1.1/DTD/svg11.dtd"><svg t="1734597042828" class="icon" viewBox="0 0 1030 1024" version="1.1" xmlns="http://www.w3.org/2000/svg" p-id="1522" xmlns:xlink="http://www.w3.org/1999/xlink" width="1030" height="1024"><path d="M907.51681185 512c0 218.43397311-177.07383939 395.5078125-395.50781251 395.5078125C293.57579486 907.5078125 116.50118684 730.43397311 116.50118684 512 116.50118684 293.56679473 293.57579486 116.4921875 512.00899935 116.4921875c218.43397311 0 395.5078125 177.07460723 395.50781249 395.5078125zM732.77915676 327.99287002c-4.89354556-10.48518093-11.79611629-20.53491935-20.70925023-30.14614311-8.91236532-9.61199161-17.0398593-16.34023224-24.3786404-20.18472189-3.49582789-1.74714649-7.6021978-3.32072993-12.32141247-4.71921467-4.71844682-1.39771688-9.61199161-2.1841247-14.67986726-2.35845481-5.06787566-0.17509873-10.22330068 0.52452756-15.46627584 2.09734317s-10.31085005 4.28070002-15.2043956 8.12595753c-3.84448966 3.14563122-8.65048508 7.42709907-14.41721918 12.84517218-5.76750195 5.41730527-10.74706117 10.04820274-14.94174752 13.89345946l98.04062637 98.04062713c2.44600493-2.09734317 5.06787566-4.54411595 7.86407804-7.34031755 2.44600493-2.44677277 5.32898807-5.24297438 8.65125291-8.38783776 3.31996132-3.14639905 7.07767025-6.81579 11.27158875-11.00970849 3.84448966-4.1939185 6.63992343-8.56293649 8.38783776-13.10705243 1.74791433-4.5433481 2.62263934-9.08746404 2.62263934-13.63157999 0-4.5433481-0.43774681-8.91236532-1.31093537-13.10628383-0.87395717-4.19468711-2.01133026-7.86484589-3.4082793-11.01124493zM324.36319828 583.84341787c-4.89354556 4.89277694-8.65048508 9.34857568-11.27158874 13.36816406-2.6218715 4.01958838-4.98109415 8.47615496-7.07767024 13.36816406-1.74714649 3.14793474-4.01958838 8.913901-6.81579 17.30250738-2.79620161 8.3886056-5.67995336 17.56285117-8.65048507 27.52427162a2156.46756472 2156.46756472 0 0 0-8.38860561 28.83597559c-2.62110288 9.26256277-4.28146785 16.3394644-4.98032629 21.23300918-1.39771688 9.08669621-0.52452756 15.55382443 2.62110288 19.3990827 3.14639905 3.84525751 9.4376615 5.2414387 18.87455438 4.19315067 4.54411595-0.69809061 11.44668746-2.27013837 20.70925023-4.71844683 9.26256277-2.44600493 19.04888526-5.32975591 29.35973453-8.65125293 10.31085005-3.31919348 20.1847219-6.72747278 29.62161555-10.22330146s16.60211248-6.46636039 21.49565803-8.91236532c4.89354556-2.09734317 9.61122377-4.8943134 14.15533972-8.38937345 4.54411595-3.49429221 8.56370433-6.81502215 12.05876438-9.96065259 1.39848472-1.04828805 5.76673411-5.24297438 13.10705166-12.58406055 7.34031755-7.34031755 16.60211248-16.6881254 27.7869197-28.04726349 11.18403937-11.36067378 23.76733132-23.85488068 37.74910875-37.48722928l41.94149156-42.46678697 112.72126301-112.7204944-98.0421628-98.56361901L448.61792872 459.06339125l-42.46678697 42.46678774-38.27286847 38.27210063c-11.53423682 11.5357725-21.14622843 21.23377779-28.83520774 29.0986229-7.68897933 7.86407805-12.58329194 12.84440435-14.67986727 14.94251536z" fill="#111111" p-id="1523"></path></svg>